<?xml version="1.0" encoding="utf-8"?>
<!-- Generator: Adobe Illustrator 22.0.1, SVG Export Plug-In . SVG Version: 6.00 Build 0)  -->
<svg version="1.1" id="Layer_1" xmlns="http://www.w3.org/2000/svg" xmlns:xlink="http://www.w3.org/1999/xlink" x="0px" y="0px"
	 viewBox="0 0 841.9 595.3" style="enable-background:new 0 0 841.9 595.3;" xml:space="preserve">
<style type="text/css">
	.st0{fill:#B82234;}
	.st1{fill:#D8D9DA;}
	.st2{fill:#E73530;}
	.st3{fill:#C9CACC;}
	.st4{fill:#9FA1A4;}
	.st5{fill:#D93B20;}
	.st6{fill:#B42E34;}
	.st7{fill:#00478C;}
</style>
<g>
	<g>
		<polygon class="st0" points="136.7,253.8 133.4,290.3 125.9,297.4 102.8,283.7 		"/>
		<path class="st1" d="M226.8,260.6c-3.3-1.7-42.3-21.3-45.1-22.7c-2.8-1.4-5-1.1-7,0.7c-2,1.8-34.8,31.6-34.8,31.6l29,14.5l14.7-14
			l24.9,12.3l-5.4,31.2l21.9-23.6c0,0,3.9-19.9,4.6-23.1C230.1,264.1,230.1,262.3,226.8,260.6z"/>
		<polygon class="st2" points="168.1,288.1 168.1,288.1 168.1,288.1 		"/>
		<polygon class="st3" points="183.6,270.5 178.9,302.2 203,314.1 208.5,282.9 		"/>
		<polygon class="st4" points="168.8,284.6 164.5,316.6 178.9,302.2 183.6,270.5 		"/>
		<g>
			<polygon class="st3" points="139.9,270.1 136.7,303.2 164.5,316.6 168.8,284.6 			"/>
		</g>
		<path class="st5" d="M133.5,298.6l-30.6-14.9l33.8-29.9l-28.2-14c0,0-39.6,32.6-45,36.9c-5.8,4.7-6.7,5.6-6.7,9.7
			c0,6.3,0,21.9,0,27c0,4.1,2,6.2,5.4,7.8c2.5,1.2,69.2,33.2,73.9,35.3c4.2,1.9,7,1.2,10.5-2.7c2.8-3,22.5-24.1,22.5-24.1l4.5-31.7
			l-26.4-12.9L133.5,298.6z"/>
		<path class="st0" d="M139.8,325c-2-1-72.6-35-75.9-36.7c-2.9-1.5-4.1-0.4-4.1,2.5c0,3.2,0,20.4,0,23.1c0,2.1,0.6,2.9,2.7,3.9
			c1,0.4,70.8,33.8,73.1,34.9c2.3,1.1,4.2,1,4.5-2.3c0.4-3.3,1.8-18.3,2.1-20.9C142.4,327,141.8,326,139.8,325z"/>
		<path class="st6" d="M149.7,325.7c-1.8,1.9-2.2,2.7-2.5,5.6c-0.4,4.5-1.6,15-1.8,16.7c-0.3,2.3,1,3.2,2.3,1.7
			c1.4-1.5,19.6-20.6,19.6-20.6l3.2-24.6C170.6,304.4,152,323.3,149.7,325.7z"/>
		<path class="st4" d="M225.6,268.8c-1.2,1.2-15.6,16.1-15.6,16.1l-4.2,23.4l17.7-19c0,0,3.8-19.1,4-20.3
			C227.7,267.8,226.7,267.6,225.6,268.8z"/>
	</g>
	<g>
		<path class="st7" d="M221.4,351.8v-47.5h11.8v38.6h34.4v8.8H221.4z"/>
		<path class="st7" d="M271.1,351.8v-47.5h11.8v47.5H271.1z"/>
		<path class="st7" d="M293,351.8v-47.5h7.9l31.8,28c1.3,1,2.4,1.9,3.4,2.7c1,0.8,1.9,1.7,2.7,2.5c-0.2-2.7-0.3-4.6-0.4-5.7
			c-0.1-1.1-0.1-2-0.1-2.5v-24.9h10.6v47.5H341l-33.5-29.3c-1-0.7-1.8-1.4-2.5-2c-0.7-0.6-1.4-1.2-2-1.9c0.2,1.5,0.3,2.9,0.4,4.2
			c0.1,1.3,0.1,2.4,0.1,3.4v25.7H293z"/>
		<path class="st7" d="M358.8,351.8v-47.5h12v19.8l23.1-19.8h14.6l-25.6,22.4l29.9,25.1h-16.6l-25.4-20.9v20.9H358.8z"/>
		<path class="st7" d="M459.5,312.7H426v30.2h33.5v-10.3h-17.3v-8.4h28.5v16.4c0,4.3-0.9,7.2-2.8,8.8c-1.8,1.5-4.7,2.3-10,2.3h-31.1
			c-5.2,0-8.1-0.8-9.9-2.3c-1.8-1.6-2.7-4.5-2.7-8.8v-25.2c0-4.3,0.9-7.2,2.7-8.8c1.8-1.6,4.7-2.4,9.9-2.4H458c5.2,0,8.1,0.8,10,2.3
			c1.9,1.5,2.8,4.4,2.8,8.4v1.1l-11.3,2V312.7z"/>
		<path class="st7" d="M479.6,351.8v-47.5H528v8h-36.6V323h24.2v8.4h-24.2v11.5h37v8.8H479.6z"/>
		<path class="st7" d="M534.1,351.8v-47.5h7.9l31.8,28c1.3,1,2.4,1.9,3.4,2.7c1,0.8,1.9,1.7,2.7,2.5c-0.2-2.7-0.3-4.6-0.4-5.7
			c-0.1-1.1-0.1-2-0.1-2.5v-24.9H590v47.5h-7.9l-33.5-29.3c-0.9-0.7-1.8-1.4-2.5-2c-0.7-0.6-1.4-1.2-2-1.9c0.2,1.5,0.3,2.9,0.4,4.2
			c0.1,1.3,0.1,2.4,0.1,3.4v25.7H534.1z"/>
		<path class="st7" d="M599.9,351.8v-47.5h48.4v8h-36.6V323h24.2v8.4h-24.2v11.5h37v8.8H599.9z"/>
		<path class="st7" d="M694.4,312.5h-29.2v10.3h27.2c5.3,0,8.5,0.8,10.4,2.4c1.9,1.6,2,4.5,2,8.9v6.6c0,4.3-0.1,7.2-2,8.8
			c-1.9,1.6-5.1,2.4-10.4,2.4h-25.6c-5.2,0-8.4-0.8-10.3-2.4c-1.8-1.6-2.3-4.5-2.3-8.8v-1.4l10.5-2.1v5.8h30.4v-10.9h-27.3
			c-5.3,0-8.5-0.8-10.3-2.4c-1.8-1.6-2.3-4.6-2.3-8.9v-5.3c0-4.3,0.4-7.2,2.3-8.8c1.9-1.6,5.1-2.4,10.3-2.4h23.9
			c5.1,0,8.2,0.8,10.1,2.3c1.9,1.5,2.9,4.2,2.9,8v1l-10.4,2.3V312.5z"/>
		<path class="st7" d="M713.9,351.8v-47.5h11.8v47.5H713.9z"/>
		<path class="st7" d="M775.1,312.5h-29.3v10.3h27.2c5.3,0,8.5,0.8,10.4,2.4c1.9,1.6,2,4.5,2,8.9v6.6c0,4.3-0.1,7.2-2,8.8
			c-1.9,1.6-5.1,2.4-10.4,2.4h-25.6c-5.2,0-8.4-0.8-10.3-2.4c-1.8-1.6-2.3-4.5-2.3-8.8v-1.4l10.5-2.1v5.8h30.4v-10.9h-27.3
			c-5.3,0-8.5-0.8-10.3-2.4c-1.8-1.6-2.3-4.6-2.3-8.9v-5.3c0-4.3,0.4-7.2,2.3-8.8c1.8-1.6,5.1-2.4,10.3-2.4h23.9
			c5.1,0,8.2,0.8,10.1,2.3c1.9,1.5,2.9,4.2,2.9,8v1l-10.4,2.3V312.5z"/>
	</g>
</g>
</svg>
