<?xml version="1.0" encoding="UTF-8"?>
<svg width="125px" height="21px" viewBox="0 0 125 21" version="1.1" xmlns="http://www.w3.org/2000/svg" xmlns:xlink="http://www.w3.org/1999/xlink">
    <!-- Generator: Sketch 50.2 (55047) - http://www.bohemiancoding.com/sketch -->
    <title>ci-link--white</title>
    <desc>Created with Sketch.</desc>
    <defs></defs>
    <g id="Page-1" stroke="none" stroke-width="1" fill="none" fill-rule="evenodd">
        <g id="ci-link--white" fill="#FFFFFF" fill-rule="nonzero">
            <g id="Group">
                <path d="M15.5833333,8.375 L13.2083333,10.6875 L12.2083333,10.2083333 L13.2083333,9.27083333 L13.7708333,3.02083333 L8.95833333,0.625 C8.95833333,0.625 2.1875,6.20833333 1.27083333,6.9375 C0.270833333,7.75 0.125,7.89583333 0.125,8.58333333 C0.125,9.66666667 0.125,12.3333333 0.125,13.1875 C0.125,13.875 0.458333333,14.25 1.04166667,14.5208333 C1.47916667,14.7291667 12.875,20.1875 13.6875,20.5625 C14.4166667,20.8958333 14.875,20.7708333 15.4791667,20.1041667 C15.9583333,19.5833333 19.3333333,15.9791667 19.3333333,15.9791667 L20.1041667,10.5416667 L15.5833333,8.375 Z" id="Shape"></path>
                <path d="M29.1666667,4.16666667 C28.6041667,3.875 21.9375,0.520833333 21.4583333,0.270833333 C20.9791667,0.0208333333 20.6041667,0.0833333333 20.2708333,0.395833333 C19.9166667,0.708333333 14.3125,5.79166667 14.3125,5.79166667 L14.1041667,8.04166667 L15.4375,6.75 L21.4583333,9.72916667 L21.2291667,11.3958333 L25.125,13.3125 L28.875,9.27083333 C28.875,9.27083333 29.5416667,5.875 29.6458333,5.3125 C29.75,4.77083333 29.75,4.45833333 29.1666667,4.16666667 Z" id="Shape"></path>
            </g>
            <g id="Group" transform="translate(28.125000, 11.458333)">
                <polygon id="Shape" points="0.125 8.3125 0.125 0.1875 2.14583333 0.1875 2.14583333 6.79166667 8.02083333 6.79166667 8.02083333 8.3125"></polygon>
                <polygon id="Shape" points="8.64583333 8.3125 8.64583333 0.1875 10.6666667 0.1875 10.6666667 8.3125"></polygon>
                <path d="M12.375,8.3125 L12.375,0.1875 L13.7291667,0.1875 L19.1666667,4.97916667 C19.3958333,5.14583333 19.5833333,5.29166667 19.75,5.4375 C19.9166667,5.58333333 20.0833333,5.72916667 20.2083333,5.875 C20.1666667,5.41666667 20.1458333,5.10416667 20.1458333,4.89583333 C20.125,4.70833333 20.125,4.5625 20.125,4.45833333 L20.125,0.1875 L21.9375,0.1875 L21.9375,8.3125 L20.5833333,8.3125 L14.8541667,3.29166667 C14.6875,3.16666667 14.5416667,3.04166667 14.4166667,2.9375 C14.2916667,2.83333333 14.1875,2.72916667 14.0833333,2.625 C14.1041667,2.875 14.125,3.125 14.1458333,3.33333333 C14.1666667,3.5625 14.1666667,3.75 14.1666667,3.91666667 L14.1666667,8.3125 L12.375,8.3125 Z" id="Shape"></path>
                <polygon id="Shape" points="23.625 8.3125 23.625 0.1875 25.6875 0.1875 25.6875 3.58333333 29.625 0.1875 32.125 0.1875 27.75 4.02083333 32.8541667 8.3125 30.0208333 8.3125 25.6666667 4.72916667 25.6666667 8.3125"></polygon>
                <path d="M40.875,1.625 L35.1458333,1.625 L35.1458333,6.79166667 L40.875,6.79166667 L40.875,5.04166667 L37.9166667,5.04166667 L37.9166667,3.60416667 L42.7916667,3.60416667 L42.7916667,6.41666667 C42.7916667,7.14583333 42.625,7.66666667 42.3125,7.91666667 C42,8.1875 41.5,8.3125 40.6041667,8.3125 L35.2708333,8.3125 C34.375,8.3125 33.8958333,8.1875 33.5833333,7.91666667 C33.2708333,7.64583333 33.1041667,7.14583333 33.1041667,6.41666667 L33.1041667,2.10416667 C33.1041667,1.375 33.2708333,0.875 33.5833333,0.604166667 C33.8958333,0.333333333 34.375,0.1875 35.2708333,0.1875 L40.6041667,0.1875 C41.5,0.1875 41.9791667,0.3125 42.3125,0.583333333 C42.625,0.854166667 42.7916667,1.33333333 42.7916667,2.02083333 L42.7916667,2.20833333 L40.8541667,2.54166667 L40.8541667,1.625 L40.875,1.625 Z" id="Shape"></path>
                <polygon id="Shape" points="44.2916667 8.3125 44.2916667 0.1875 52.5625 0.1875 52.5625 1.5625 46.3125 1.5625 46.3125 3.39583333 50.4583333 3.39583333 50.4583333 4.83333333 46.3125 4.83333333 46.3125 6.79166667 52.6458333 6.79166667 52.6458333 8.3125"></polygon>
                <path d="M53.625,8.3125 L53.625,0.1875 L54.9791667,0.1875 L60.4166667,4.97916667 C60.6458333,5.14583333 60.8333333,5.29166667 61,5.4375 C61.1666667,5.58333333 61.3125,5.72916667 61.4583333,5.875 C61.4166667,5.41666667 61.3958333,5.10416667 61.3958333,4.89583333 C61.375,4.70833333 61.375,4.5625 61.375,4.45833333 L61.375,0.1875 L63.1875,0.1875 L63.1875,8.3125 L61.8333333,8.3125 L56.1041667,3.29166667 C55.9375,3.16666667 55.7916667,3.04166667 55.6875,2.9375 C55.5625,2.83333333 55.4583333,2.72916667 55.3541667,2.625 C55.375,2.875 55.3958333,3.125 55.4166667,3.33333333 C55.4375,3.5625 55.4375,3.75 55.4375,3.91666667 L55.4375,8.3125 L53.625,8.3125 Z" id="Shape"></path>
                <polygon id="Shape" points="64.875 8.3125 64.875 0.1875 73.1458333 0.1875 73.1458333 1.5625 66.875 1.5625 66.875 3.39583333 71.0416667 3.39583333 71.0416667 4.83333333 66.8958333 4.83333333 66.8958333 6.79166667 73.2291667 6.79166667 73.2291667 8.3125"></polygon>
                <path d="M81.0625,1.60416667 L76.0625,1.60416667 L76.0625,3.35416667 L80.7291667,3.35416667 C81.6458333,3.35416667 82.1875,3.5 82.5208333,3.75 C82.8333333,4.02083333 82.8541667,4.52083333 82.8541667,5.27083333 L82.8541667,6.39583333 C82.8541667,7.125 82.8333333,7.625 82.5208333,7.89583333 C82.2083333,8.16666667 81.6458333,8.29166667 80.7291667,8.29166667 L76.3541667,8.29166667 C75.4583333,8.29166667 74.9166667,8.16666667 74.6041667,7.89583333 C74.2916667,7.625 74.2083333,7.125 74.2083333,6.39583333 L74.2083333,6.16666667 L76.0208333,5.8125 L76.0208333,6.79166667 L81.2291667,6.79166667 L81.2291667,4.9375 L76.5625,4.9375 C75.6666667,4.9375 75.1041667,4.79166667 74.7916667,4.52083333 C74.4791667,4.25 74.3958333,3.72916667 74.3958333,3 L74.3958333,2.08333333 C74.3958333,1.35416667 74.4791667,0.854166667 74.7916667,0.583333333 C75.1041667,0.3125 75.6666667,0.1875 76.5625,0.1875 L80.6458333,0.1875 C81.5208333,0.1875 82.0416667,0.3125 82.375,0.583333333 C82.7083333,0.833333333 82.875,1.29166667 82.875,1.95833333 L82.875,2.125 L81.1041667,2.52083333 L81.1041667,1.60416667 L81.0625,1.60416667 Z" id="Shape"></path>
                <polygon id="Shape" points="84.3958333 8.3125 84.3958333 0.1875 86.4166667 0.1875 86.4166667 8.3125"></polygon>
                <path d="M94.8541667,1.60416667 L89.8541667,1.60416667 L89.8541667,3.35416667 L94.5208333,3.35416667 C95.4166667,3.35416667 95.9791667,3.5 96.3125,3.75 C96.625,4.02083333 96.6458333,4.52083333 96.6458333,5.27083333 L96.6458333,6.39583333 C96.6458333,7.125 96.625,7.625 96.3125,7.89583333 C96,8.16666667 95.4375,8.29166667 94.5208333,8.29166667 L90.1458333,8.29166667 C89.25,8.29166667 88.7083333,8.16666667 88.3958333,7.89583333 C88.0833333,7.625 88,7.125 88,6.39583333 L88,6.16666667 L89.8125,5.8125 L89.8125,6.79166667 L95.0208333,6.79166667 L95.0208333,4.9375 L90.3541667,4.9375 C89.4583333,4.9375 88.8958333,4.79166667 88.5833333,4.52083333 C88.2708333,4.25 88.1875,3.72916667 88.1875,3 L88.1875,2.08333333 C88.1875,1.35416667 88.2708333,0.854166667 88.5833333,0.583333333 C88.8958333,0.3125 89.4583333,0.1875 90.3541667,0.1875 L94.4375,0.1875 C95.3125,0.1875 95.8333333,0.3125 96.1666667,0.583333333 C96.5,0.833333333 96.6666667,1.29166667 96.6666667,1.95833333 L96.6666667,2.125 L94.8958333,2.52083333 L94.8958333,1.60416667 L94.8541667,1.60416667 Z" id="Shape"></path>
            </g>
        </g>
    </g>
</svg>