<svg xmlns="http://www.w3.org/2000/svg" xmlns:xlink="http://www.w3.org/1999/xlink" width="24" height="24" viewBox="0 0 24 24">
    <defs>
        <path id="a" d="M11.3 18h1.4a.3.3 0 0 1 .3.3v3.4a.3.3 0 0 1-.3.3h-1.4a.3.3 0 0 1-.3-.3v-3.4a.3.3 0 0 1 .3-.3zM9.205 6h1.78a.3.3 0 0 1 .3.3v1.781a.3.3 0 0 1-.3.3h-1.78a.3.3 0 0 1-.3-.3V6.3a.3.3 0 0 1 .3-.3zm0 3.81h1.78a.3.3 0 0 1 .3.3v1.78a.3.3 0 0 1-.3.3h-1.78a.3.3 0 0 1-.3-.3v-1.78a.3.3 0 0 1 .3-.3zm0 3.809h1.78a.3.3 0 0 1 .3.3V15.7a.3.3 0 0 1-.3.3h-1.78a.3.3 0 0 1-.3-.3v-1.781a.3.3 0 0 1 .3-.3zM13.015 6h1.78a.3.3 0 0 1 .3.3v1.781a.3.3 0 0 1-.3.3h-1.78a.3.3 0 0 1-.3-.3V6.3a.3.3 0 0 1 .3-.3zm0 3.81h1.78a.3.3 0 0 1 .3.3v1.78a.3.3 0 0 1-.3.3h-1.78a.3.3 0 0 1-.3-.3v-1.78a.3.3 0 0 1 .3-.3zm0 3.809h1.78a.3.3 0 0 1 .3.3V15.7a.3.3 0 0 1-.3.3h-1.78a.3.3 0 0 1-.3-.3v-1.781a.3.3 0 0 1 .3-.3zM7 4v16h10V4H7zm12 16h1a1 1 0 0 1 1 1v1H3v-1a1 1 0 0 1 1-1h1V4a2 2 0 0 1 2-2h10a2 2 0 0 1 2 2v16z"/>
    </defs>
    <g fill="none" fill-rule="evenodd">
        <mask id="b" fill="#fff">
            <use xlink:href="#a"/>
        </mask>
        <use fill="#6D7075" xlink:href="#a"/>
        <g fill="#4B5058" mask="url(#b)">
            <path d="M0 0h24v24H0z"/>
        </g>
    </g>
</svg>
