<?xml version="1.0" encoding="UTF-8"?>
<svg width="16px" height="16px" viewBox="0 0 16 16" version="1.1" xmlns="http://www.w3.org/2000/svg" xmlns:xlink="http://www.w3.org/1999/xlink">
    <!-- Generator: Sketch 50.2 (55047) - http://www.bohemiancoding.com/sketch -->
    <title>close--white</title>
    <desc>Created with Sketch.</desc>
    <defs>
        <path d="M8,6.39 L13.638,0.751 C14.0852291,0.320673963 14.794657,0.327615792 15.2333797,0.766610964 C15.6721023,1.20560614 15.6786036,1.91503821 15.248,2.362 L9.612,8 L15.25,13.638 C15.680326,14.0852291 15.6733842,14.794657 15.234389,15.2333797 C14.7953939,15.6721023 14.0859618,15.6786036 13.639,15.248 L8,9.612 L2.362,15.25 C1.91477092,15.680326 1.20534302,15.6733842 0.76662035,15.234389 C0.327897677,14.7953939 0.32139635,14.0859618 0.752,13.639 L6.388,8 L0.751,2.362 C0.454242431,2.07610332 0.33504509,1.65221561 0.439304364,1.25355288 C0.543563639,0.854890152 0.855019245,0.543627876 1.25374663,0.439616162 C1.65247402,0.335604447 2.07628764,0.455064968 2.362,0.752 L8,6.388 L8,6.39 Z" id="path-1"></path>
    </defs>
    <g id="Page-1" stroke="none" stroke-width="1" fill="none" fill-rule="evenodd">
        <g id="close--white">
            <g id="a-link" fill="#979797" fill-rule="nonzero">
                <path d="M8,6.39 L13.638,0.751 C14.0852291,0.320673963 14.794657,0.327615792 15.2333797,0.766610964 C15.6721023,1.20560614 15.6786036,1.91503821 15.248,2.362 L9.612,8 L15.25,13.638 C15.680326,14.0852291 15.6733842,14.794657 15.234389,15.2333797 C14.7953939,15.6721023 14.0859618,15.6786036 13.639,15.248 L8,9.612 L2.362,15.25 C1.91477092,15.680326 1.20534302,15.6733842 0.76662035,15.234389 C0.327897677,14.7953939 0.32139635,14.0859618 0.752,13.639 L6.388,8 L0.751,2.362 C0.454242431,2.07610332 0.33504509,1.65221561 0.439304364,1.25355288 C0.543563639,0.854890152 0.855019245,0.543627876 1.25374663,0.439616162 C1.65247402,0.335604447 2.07628764,0.455064968 2.362,0.752 L8,6.388 L8,6.39 Z" id="a"></path>
            </g>
            <g id="Clipped">
                <mask id="mask-2" fill="white">
                    <use xlink:href="#path-1"></use>
                </mask>
                <g id="a"></g>
                <g id="Group" mask="url(#mask-2)" fill="#FFFFFF" fill-rule="nonzero">
                    <g transform="translate(-4.000000, -4.000000)" id="Shape">
                        <polygon points="0 0 24 0 24 24 0 24"></polygon>
                    </g>
                </g>
            </g>
        </g>
    </g>
</svg>