<svg xmlns="http://www.w3.org/2000/svg" width="16" height="16" viewBox="0 0 16 16">
    <path fill="#4E5157" fill-rule="nonzero" d="M10.857 4.903C10.389 2.023 9.286 0 8.002 0 6.717 0 5.614 2.023 5.146 4.903h5.711zM4.904 8c0 .716.039 1.403.107 2.065h5.978a20.215 20.215 0 0 0 0-4.13H5.011A20.215 20.215 0 0 0 4.904 8zm10.477-3.097A8.018 8.018 0 0 0 10.283.335c.787 1.09 1.329 2.733 1.613 4.568h3.485zM5.717.335A8.013 8.013 0 0 0 .623 4.903h3.484c.281-1.835.823-3.477 1.61-4.568zm10.009 5.6h-3.701c.068.678.106 1.371.106 2.065s-.038 1.387-.106 2.065h3.698A7.93 7.93 0 0 0 16 8c0-.716-.1-1.403-.274-2.065zM3.872 8c0-.694.038-1.387.106-2.065h-3.7A8.07 8.07 0 0 0 0 8c0 .716.103 1.403.277 2.065h3.698A21.839 21.839 0 0 1 3.872 8zm1.274 3.097C5.614 13.977 6.717 16 8.002 16c1.284 0 2.387-2.023 2.855-4.903h-5.71zm5.14 4.568a8.026 8.026 0 0 0 5.098-4.568h-3.485c-.284 1.835-.826 3.477-1.613 4.568zM.623 11.097a8.018 8.018 0 0 0 5.098 4.568c-.788-1.09-1.33-2.733-1.614-4.568H.623z" opacity=".59"/>
</svg>
