<svg xmlns="http://www.w3.org/2000/svg" xmlns:xlink="http://www.w3.org/1999/xlink" width="18" height="20" viewBox="0 0 18 20">
    <defs>
        <path id="a" d="M12.103 22H11a2 2 0 1 1 0-4h2a2 2 0 0 1 1.997 1.895H17a2 2 0 0 0 2-2V7.263c0-1.744-1.343-3.158-3-3.158H8c-1.657 0-3 1.414-3 3.158v4.263a1 1 0 0 1-2 0V7.263C3 4.356 5.239 2 8 2h8c2.761 0 5 2.356 5 5.263V19a3 3 0 0 1-3 3h-5.897zM18 8.5V11a1.5 1.5 0 0 1-1.5 1.5h-1.2a.3.3 0 0 1-.3-.3V7.3a.3.3 0 0 1 .3-.3h1.2A1.5 1.5 0 0 1 18 8.5zm-12 0A1.5 1.5 0 0 1 7.5 7h1.2a.3.3 0 0 1 .3.3v4.9a.3.3 0 0 1-.3.3H7.5A1.5 1.5 0 0 1 6 11V8.5z"/>
    </defs>
    <g fill="none" fill-rule="evenodd">
        <path d="M-27-22h186v64H-27z"/>
        <path d="M-3-2h138v24H-3z"/>
        <g transform="translate(-3 -2)">
            <mask id="b" fill="#fff">
                <use xlink:href="#a"/>
            </mask>
            <use fill="#D8D8D8" xlink:href="#a"/>
            <g fill="#00C7E6" mask="url(#b)">
                <path d="M0 0h24v24H0z"/>
            </g>
        </g>
    </g>
</svg>
