<svg xmlns="http://www.w3.org/2000/svg" xmlns:xlink="http://www.w3.org/1999/xlink" width="24" height="24" viewBox="0 0 24 24">
    <defs>
        <path id="a" d="M21.167 6H5.889c-.724 0-1.342.453-1.571 1.083H2.833A.823.823 0 0 0 2 7.896v9.208C2 18.151 2.87 19 3.944 19h17.223c.46 0 .833-.364.833-.813V6.813A.823.823 0 0 0 21.167 6zm-17.5 11.104V8.708h.555v8.396c0 .15-.124.271-.278.271a.275.275 0 0 1-.277-.27zm16.666.271H5.87c.013-.088.02-.179.02-.27v-9.48h14.444v9.75zm-12.36-4.063h4.721c.23 0 .417-.181.417-.406v-3.25a.412.412 0 0 0-.417-.406H7.972a.412.412 0 0 0-.416.406v3.25c0 .225.186.406.416.406zm.971-2.708h2.778v1.354H8.944v-1.354zm-1.388 4.74v-.813c0-.224.186-.406.416-.406h4.722c.23 0 .417.182.417.406v.813a.412.412 0 0 1-.417.406H7.972a.412.412 0 0 1-.416-.406zm6.666 0v-.813c0-.224.187-.406.417-.406h3.611c.23 0 .417.182.417.406v.813a.412.412 0 0 1-.417.406h-3.611a.412.412 0 0 1-.417-.406zm0-4.875v-.813c0-.224.187-.406.417-.406h3.611c.23 0 .417.182.417.406v.813a.412.412 0 0 1-.417.406h-3.611a.412.412 0 0 1-.417-.406zm0 2.437v-.812c0-.225.187-.406.417-.406h3.611c.23 0 .417.181.417.406v.812a.412.412 0 0 1-.417.406h-3.611a.412.412 0 0 1-.417-.406z"/>
    </defs>
    <g fill="none" fill-rule="evenodd">
        <mask id="b" fill="#fff">
            <use xlink:href="#a"/>
        </mask>
        <use fill="#000" fill-rule="nonzero" xlink:href="#a"/>
        <g fill="#4B5058" mask="url(#b)">
            <path d="M0 0h24v24H0z"/>
        </g>
    </g>
</svg>
