<svg xmlns="http://www.w3.org/2000/svg" xmlns:xlink="http://www.w3.org/1999/xlink" width="24" height="24" viewBox="0 0 24 24">
    <defs>
        <path id="a" d="M3.5 7a3.5 3.5 0 1 1 0-7 3.5 3.5 0 0 1 0 7zm0-2a1.5 1.5 0 1 0 0-3 1.5 1.5 0 0 0 0 3z"/>
        <path id="c" d="M3.5 11a7.5 7.5 0 1 1 0-15 7.5 7.5 0 0 1 0 15zm0-2a5.5 5.5 0 1 0 0-11 5.5 5.5 0 0 0 0 11z"/>
        <path id="e" d="M6.9 2a1 1 0 1 1 0-2h4.406v4.167a1 1 0 0 1-2 0V2H6.9zM5.006 6.477H1.5a1.5 1.5 0 0 1 0-3h6.506v6.155a1.5 1.5 0 1 1-3 0V6.477z"/>
    </defs>
    <g fill="none" fill-rule="evenodd">
        <g transform="translate(10 7)">
            <mask id="b" fill="#fff">
                <use xlink:href="#a"/>
            </mask>
            <use fill="#1B1F26" xlink:href="#a"/>
            <g fill="#4B5058" mask="url(#b)">
                <path d="M-10-7h24v24h-24z"/>
            </g>
            <mask id="d" fill="#fff">
                <use xlink:href="#c"/>
            </mask>
            <use fill="#1B1F26" fill-rule="nonzero" xlink:href="#c"/>
            <g fill="#4B5058" mask="url(#d)">
                <path d="M-10-7h24v24h-24z"/>
            </g>
        </g>
        <g transform="translate(2 11)">
            <mask id="f" fill="#fff">
                <use xlink:href="#e"/>
            </mask>
            <use fill="#1B1F26" xlink:href="#e"/>
            <g fill="#4B5058" mask="url(#f)">
                <path d="M-2-11h24v24H-2z"/>
            </g>
        </g>
    </g>
</svg>
