<svg xmlns="http://www.w3.org/2000/svg" xmlns:xlink="http://www.w3.org/1999/xlink" width="24" height="24" viewBox="0 0 24 24">
    <defs>
        <path id="a" d="M20.485 13.639a3.482 3.482 0 0 0 .515-1.85c0-1.633-1.396-3.175-3.218-3.175h-1.368a4.695 4.695 0 0 0 .332-1.728c0-2.7-1.414-3.886-3.573-3.886-2.31 0-2.178 3.523-2.691 4.03-.853.844-1.86 2.466-2.578 3.095H4.2c-.663 0-1.2.532-1.2 1.188v8.906c0 .656.537 1.187 1.2 1.187h2.4c.558 0 1.028-.377 1.162-.889C9.43 20.555 10.576 22 14.429 22h.833c2.892 0 4.2-1.463 4.236-3.538.5-.683.761-1.6.65-2.486.37-.684.512-1.497.337-2.337zm-2.316 1.997c.471.785.048 1.834-.522 2.137.289 1.81-.66 2.445-1.992 2.445h-1.418c-2.687 0-4.427-1.403-6.437-1.403v-6.909h.41c1.063 0 2.549-2.63 3.545-3.616 1.063-1.053.709-2.807 1.418-3.509 1.773 0 1.773 1.224 1.773 2.105 0 1.454-1.064 2.105-1.064 3.509h3.9c.791 0 1.415.702 1.418 1.403.003.702-.48 1.403-.835 1.403.506.54.614 1.679-.195 2.435zM6.3 19.031c0 .492-.403.89-.9.89a.895.895 0 0 1-.9-.89c0-.492.403-.89.9-.89s.9.398.9.89z"/>
    </defs>
    <g fill="none" fill-rule="evenodd">
        <mask id="b" fill="#fff">
            <use xlink:href="#a"/>
        </mask>
        <use fill="#000" fill-rule="nonzero" xlink:href="#a"/>
        <g fill="#4B5058" mask="url(#b)">
            <path d="M0 0h24v24H0z"/>
        </g>
    </g>
</svg>
