<svg xmlns="http://www.w3.org/2000/svg" xmlns:xlink="http://www.w3.org/1999/xlink" width="40" height="40" viewBox="0 0 40 40">
    <defs>
        <path id="a" d="M7.539 13.2c-.383 0-.828-.363-.657-.778.349-.846 1.399-4.038 1.69-4.714.115-.267.385-.375.662-.375.336 0 .682.156.779.375.209.472 1.357 3.802 1.689 4.727.232.647-.89 1.096-1.122.449-.287-.8-.213-.836-.213-.836H8.205l-.236.873a.44.44 0 0 1-.43.279zm1.769-4.473L8.595 10.9h1.37l-.657-2.174z"/>
        <path id="b" d="M12.222 12.612c0 .196.056.588.5.588.591 0 1.905-.006 2.487-.006.583 0 .58-1.251-.003-1.251-.582 0-1.645-.006-1.645-.006s.005-3.244.003-4.033c0-.38-.335-.57-.67-.57-.336 0-.672.191-.672.574.003 1.089.006 4.595.006 4.595s-.006.043-.006.109z"/>
        <path id="c" d="M19.702 13.2c.426 0 1.03-.572.767-.92l-1.742-2.297S19.91 8.7 20.376 8.238c.272-.271-.57-1.12-.842-.85-.264.262-2.115 2.12-2.115 2.12s.016-1.167-.001-1.812c-.007-.244-.307-.363-.613-.363-.328 0-.664.136-.657.398.013.471-.015 4.7-.015 5.084v.009c0 .502 1.278.5 1.277-.002v-1.69l.376-.302 1.64 2.242a.33.33 0 0 0 .276.128z"/>
    </defs>
    <g fill="none" fill-rule="evenodd">
        <circle cx="20" cy="20" r="20" fill="#FFEB00"/>
        <g transform="translate(8.267 10.178)">
            <path fill="#381E1F" d="M11.733 0C5.253 0 0 4.144 0 9.255c0 3.327 2.226 6.244 5.567 7.875-.246.914-.89 3.312-1.018 3.825-.16.636.234.628.491.457.202-.134 3.215-2.179 4.516-3.061.705.104 1.433.16 2.177.16 6.48 0 11.734-4.144 11.734-9.256C23.467 4.144 18.213 0 11.733 0"/>
            <path fill="#FFEB00" d="M3.477 7.339c-.726 0-.724 1.227.002 1.227h1.239s.007 3.4 0 4.2c.003.583 1.29.576 1.288-.006l.005-4.2s.415-.002 1.233-.001c.77 0 .771-1.225 0-1.226-.866 0-3.767.006-3.767.006"/>
            <use fill="#FFEB00" xlink:href="#a"/>
            <use fill="#FFEB00" xlink:href="#b"/>
            <use fill="#FFEB00" xlink:href="#c"/>
        </g>
    </g>
</svg>
